<svg width="600" height="150" viewBox="0 0 600 150" fill="none" xmlns="http://www.w3.org/2000/svg">
<g clip-path="url(#clip0_1_2)">
<path d="M13.2363 125V30.4H37.4763V42.2H24.3963V72.2H36.3963V84H24.3963V113.2H37.7163V125H13.2363Z" fill="white"/>
<path d="M51.8494 125V30.4H74.7694C84.0094 30.4 90.5494 32.6 94.3894 37C98.3494 41.28 100.329 47.16 100.329 54.64C100.329 62.12 98.3494 68 94.3894 72.28C90.5494 76.44 84.0094 78.52 74.7694 78.52H63.0094V125H51.8494ZM63.0094 67.48H73.4494C79.0894 67.48 83.0494 66.24 85.3294 63.76C87.6094 61.28 88.7494 58.08 88.7494 54.16C88.7494 50.36 87.6094 47.2 85.3294 44.68C83.0494 42.04 79.0894 40.72 73.4494 40.72H63.0094V67.48Z" fill="white"/>
<path d="M165.719 89.2C165.719 100.6 162.299 109.48 155.459 115.84C148.739 122.08 139.679 125.2 128.279 125.2C116.879 125.2 107.819 122.08 101.099 115.84C94.3793 109.48 90.9593 100.6 90.9593 89.2V30.4H102.119V89.08C102.119 97.48 104.219 103.88 108.419 108.28C112.739 112.56 119.279 114.7 128.039 114.7C136.799 114.7 143.339 112.56 147.659 108.28C151.859 103.88 153.959 97.48 153.959 89.08V30.4H165.119L165.719 89.2Z" fill="white"/>
<path d="M227.663 125V89.92L215.183 30.4H227.303L234.383 67.12L241.463 30.4H253.223L240.983 89.92V125H227.663Z" fill="white"/>
<path d="M266.331 125V30.4H312.411V41.44H277.491V72.52H307.011V83.56H277.491V113.96H313.251V125H266.331Z" fill="white"/>
<path d="M363.313 109.36C365.113 113.52 367.813 116.8 371.413 119.2C375.013 121.48 379.213 122.62 384.013 122.62C389.293 122.62 393.613 121.44 397.053 119.08C400.493 116.72 402.213 113.6 402.213 109.72C402.213 106.6 401.133 104 398.973 101.92C396.933 99.84 394.053 98.2 390.333 97C386.613 95.68 381.693 94.4 375.573 93.16C365.493 91.12 358.413 88.6 354.333 85.6C350.373 82.6 348.393 78.6 348.393 73.6C348.393 67.12 350.733 61.8 355.413 57.64C360.093 53.48 366.093 51.4 373.413 51.4C379.413 51.4 384.613 52.84 389.013 55.72C393.413 58.48 396.453 62.24 398.133 66.92L387.573 72.52C386.373 69.4 384.613 67.12 382.293 65.68C380.093 64.24 377.253 63.52 373.773 63.52C369.453 63.52 365.973 64.6 363.333 66.76C360.813 68.8 359.553 71.16 359.553 73.84C359.553 76.24 360.253 78.24 361.653 79.84C363.053 81.44 365.253 82.72 368.253 83.68C371.253 84.52 375.453 85.48 380.853 86.56C390.093 88.48 396.493 90.88 400.053 93.76C403.733 96.52 405.573 100.4 405.573 105.4C405.573 111.4 403.293 116.4 398.733 120.4C394.293 124.28 388.413 126.22 381.093 126.22C374.013 126.22 367.893 124.44 362.733 120.88L363.313 109.36Z" fill="white"/>
<path d="M417.809 125V30.4H428.969V125H417.809Z" fill="white"/>
<path d="M417.809 21C417.809 23.04 418.529 24.72 419.969 26C421.409 27.28 423.089 27.92 425.009 27.92C426.929 27.92 428.609 27.28 430.049 26C431.489 24.72 432.209 23.04 432.209 21C432.209 18.96 431.489 17.28 430.049 16C428.609 14.72 426.929 14.08 425.009 14.08C423.089 14.08 421.409 14.72 419.969 16C418.529 17.28 417.809 18.96 417.809 21Z" fill="white"/>
</g>
<defs>
<clipPath id="clip0_1_2">
<rect width="600" height="150" fill="white"/>
</clipPath>
</defs>
</svg>
